<?xml version="1.0" standalone="no"?>
<!DOCTYPE svg PUBLIC "-//W3C//DTD SVG 20010904//EN"
 "http://www.w3.org/TR/2001/REC-SVG-20010904/DTD/svg10.dtd">
<svg version="1.0" xmlns="http://www.w3.org/2000/svg"
 width="150.000000pt" height="92.000000pt" viewBox="0 0 150.000000 92.000000"
 preserveAspectRatio="xMidYMid meet">

<g transform="translate(0.000000,92.000000) scale(0.100000,-0.100000)"
fill="#ffffff" stroke="none">
<path d="M438 871 c-75 -25 -131 -98 -146 -192 -7 -44 -25 -84 -85 -181 -120
-195 -132 -232 -105 -319 53 -180 302 -199 390 -30 23 45 28 66 28 130 0 60 5
84 23 116 28 49 95 101 150 116 60 16 152 6 217 -25 59 -28 137 -34 187 -15
40 15 92 67 114 114 77 167 -99 350 -269 279 -50 -20 -86 -56 -134 -131 -22
-35 -43 -63 -46 -63 -4 0 -28 34 -54 74 -58 94 -104 126 -185 132 -32 2 -70 0
-85 -5z m152 -49 c25 -12 53 -44 98 -112 35 -52 67 -96 72 -98 5 -2 34 34 64
80 88 137 147 172 243 143 91 -27 146 -119 123 -206 -21 -76 -101 -139 -179
-139 -13 0 -55 14 -94 32 -128 56 -256 41 -351 -42 -55 -49 -73 -92 -78 -190
-7 -133 -48 -192 -150 -221 -103 -28 -212 64 -210 177 0 49 9 67 113 239 58
98 80 144 88 187 13 71 32 111 69 136 59 43 121 47 192 14z"/>
<path d="M1241 534 c-39 -86 -124 -143 -226 -152 -58 -4 -70 -1 -137 32 -89
44 -134 46 -207 10 -77 -39 -111 -95 -111 -185 0 -59 4 -72 33 -115 46 -68
103 -97 183 -92 99 6 175 73 192 169 l8 44 27 -52 c55 -107 128 -162 215 -163
142 -1 243 138 202 279 -12 43 -141 251 -156 251 -6 0 -16 -12 -23 -26z m90
-132 c31 -53 59 -112 63 -131 9 -51 -11 -111 -53 -152 -95 -95 -229 -61 -298
75 -32 64 -82 128 -96 123 -6 -2 -11 -31 -12 -69 0 -53 -5 -73 -27 -105 -52
-79 -160 -101 -238 -49 -144 95 -76 316 96 316 36 0 62 -8 99 -30 44 -26 59
-30 130 -30 113 0 196 41 250 123 9 15 20 27 24 27 3 0 31 -44 62 -98z"/>
</g>
</svg>
